<?xml version="1.0" standalone="no"?>
<!DOCTYPE svg PUBLIC "-//W3C//DTD SVG 20010904//EN"
 "http://www.w3.org/TR/2001/REC-SVG-20010904/DTD/svg10.dtd">
<svg version="1.0" xmlns="http://www.w3.org/2000/svg"
 width="79.000000pt" height="72.000000pt" viewBox="0 0 79.000000 72.000000"
 preserveAspectRatio="xMidYMid meet">

<g transform="translate(0.000000,72.000000) scale(0.100000,-0.100000)"
fill="#901C1C" stroke="none">
<path d="M246 670 c-37 -40 -37 -40 -112 -40 -66 0 -78 -3 -99 -25 l-25 -24 0
-261 c0 -246 1 -261 20 -280 11 -11 30 -22 42 -25 13 -3 169 -5 346 -3 l324 3
24 28 c24 28 24 29 24 274 0 314 1 313 -140 313 -64 0 -67 1 -105 40 l-39 40
-111 0 -112 0 -37 -40z m273 -75 c30 -35 31 -35 111 -35 l80 0 0 -235 0 -235
-310 0 -310 0 0 225 c0 124 -1 228 -2 233 -2 4 33 8 78 10 77 3 82 4 114 37
34 35 35 35 121 35 87 0 87 0 118 -35z"/>
<path d="M335 504 c-77 -28 -129 -103 -128 -185 2 -142 168 -233 290 -159 126
76 122 264 -6 330 -52 26 -109 31 -156 14z m133 -90 c13 -9 30 -31 38 -50 36
-87 -47 -179 -139 -153 -70 19 -105 101 -70 161 36 63 111 81 171 42z"/>
</g>
</svg>
